<svg xmlns="http://www.w3.org/2000/svg" xmlns:xlink="http://www.w3.org/1999/xlink" viewBox="0 0 900.35 889.94"><defs><style>.cls-1{fill:url(#linear-gradient);}.cls-2{fill:#e86360;}.cls-26,.cls-3,.cls-37,.cls-5,.cls-58,.cls-69,.cls-90,.cls-91,.cls-92,.cls-93{fill:none;}.cls-4{fill:#fff;}.cls-5{stroke:#fff;stroke-miterlimit:10;stroke-width:5px;}.cls-6{fill:url(#linear-gradient-2);}.cls-7{fill:url(#linear-gradient-3);}.cls-8{fill:url(#linear-gradient-4);}.cls-9{fill:url(#linear-gradient-5);}.cls-10{fill:url(#linear-gradient-6);}.cls-11{fill:url(#linear-gradient-7);}.cls-12{fill:url(#linear-gradient-8);}.cls-13{fill:url(#linear-gradient-9);}.cls-14{fill:url(#linear-gradient-10);}.cls-15{fill:url(#linear-gradient-11);}.cls-16{fill:url(#linear-gradient-12);}.cls-17{fill:url(#linear-gradient-13);}.cls-18{fill:url(#linear-gradient-14);}.cls-19{fill:url(#linear-gradient-15);}.cls-20{fill:url(#linear-gradient-16);}.cls-21{fill:url(#linear-gradient-17);}.cls-22{fill:url(#linear-gradient-18);}.cls-23{fill:url(#linear-gradient-19);}.cls-24{fill:url(#linear-gradient-20);}.cls-25{fill:url(#linear-gradient-21);}.cls-26,.cls-37,.cls-58,.cls-69,.cls-90,.cls-91,.cls-92,.cls-93{stroke-linecap:round;stroke-linejoin:round;stroke-width:4px;}.cls-26{stroke:url(#linear-gradient-22);}.cls-27{fill:url(#linear-gradient-23);}.cls-28{fill:url(#linear-gradient-24);}.cls-29{fill:url(#linear-gradient-25);}.cls-30{fill:url(#linear-gradient-26);}.cls-31{fill:url(#linear-gradient-27);}.cls-32{fill:url(#linear-gradient-28);}.cls-33{fill:url(#linear-gradient-29);}.cls-34{fill:url(#linear-gradient-30);}.cls-35{fill:url(#linear-gradient-31);}.cls-36{fill:url(#linear-gradient-32);}.cls-37{stroke:url(#linear-gradient-33);}.cls-38{fill:url(#linear-gradient-34);}.cls-39{fill:url(#linear-gradient-35);}.cls-40{fill:url(#linear-gradient-36);}.cls-41{fill:url(#linear-gradient-37);}.cls-42{fill:url(#linear-gradient-38);}.cls-43{fill:url(#linear-gradient-39);}.cls-44{fill:url(#linear-gradient-40);}.cls-45{fill:url(#linear-gradient-41);}.cls-46{fill:url(#linear-gradient-42);}.cls-47{fill:url(#linear-gradient-43);}.cls-48{fill:url(#linear-gradient-44);}.cls-49{fill:url(#linear-gradient-45);}.cls-50{fill:url(#linear-gradient-46);}.cls-51{fill:url(#linear-gradient-47);}.cls-52{fill:url(#linear-gradient-48);}.cls-53{fill:url(#linear-gradient-49);}.cls-54{fill:url(#linear-gradient-50);}.cls-55{fill:url(#linear-gradient-51);}.cls-56{fill:url(#linear-gradient-52);}.cls-57{fill:url(#linear-gradient-53);}.cls-58{stroke:url(#linear-gradient-54);}.cls-59{fill:url(#linear-gradient-55);}.cls-60{fill:url(#linear-gradient-56);}.cls-61{fill:url(#linear-gradient-57);}.cls-62{fill:url(#linear-gradient-58);}.cls-63{fill:url(#linear-gradient-59);}.cls-64{fill:url(#linear-gradient-60);}.cls-65{fill:url(#linear-gradient-61);}.cls-66{fill:url(#linear-gradient-62);}.cls-67{fill:url(#linear-gradient-63);}.cls-68{fill:url(#linear-gradient-64);}.cls-69{stroke:url(#linear-gradient-65);}.cls-70{fill:url(#linear-gradient-66);}.cls-71{fill:url(#linear-gradient-67);}.cls-72{fill:url(#linear-gradient-68);}.cls-73{fill:url(#linear-gradient-69);}.cls-74{fill:url(#linear-gradient-70);}.cls-75{fill:url(#linear-gradient-71);}.cls-76{fill:url(#linear-gradient-72);}.cls-77{fill:url(#linear-gradient-73);}.cls-78{fill:url(#linear-gradient-74);}.cls-79{fill:url(#linear-gradient-75);}.cls-80{fill:url(#linear-gradient-76);}.cls-81{fill:url(#linear-gradient-77);}.cls-82{fill:url(#linear-gradient-78);}.cls-83{fill:url(#linear-gradient-79);}.cls-84{fill:url(#linear-gradient-80);}.cls-85{fill:url(#linear-gradient-81);}.cls-86{fill:url(#linear-gradient-82);}.cls-87{fill:url(#linear-gradient-83);}.cls-88{fill:url(#linear-gradient-84);}.cls-89{fill:url(#linear-gradient-85);}.cls-90{stroke:url(#linear-gradient-86);}.cls-91{stroke:url(#linear-gradient-87);}.cls-92{stroke:url(#linear-gradient-88);}.cls-93{stroke:url(#linear-gradient-89);}.cls-94{font-size:57.13px;fill:#fed402;font-family:MyriadPro-Regular, Myriad Pro;}</style><linearGradient id="linear-gradient" x1="449.9" y1="207.22" x2="449.9" y2="681.22" gradientUnits="userSpaceOnUse"><stop offset="0" stop-color="#7aa4d7"/><stop offset="1" stop-color="#495eab"/></linearGradient><linearGradient id="linear-gradient-2" x1="443.06" x2="443.06" y2="45.07" gradientUnits="userSpaceOnUse"><stop offset="0" stop-color="#ffd650"/><stop offset="1" stop-color="#64943f"/></linearGradient><linearGradient id="linear-gradient-3" x1="444.9" y1="49.67" x2="444.9" y2="141.8" xlink:href="#linear-gradient-2"/><linearGradient id="linear-gradient-4" x1="372.16" y1="58.36" x2="372.16" y2="121.54" xlink:href="#linear-gradient-2"/><linearGradient id="linear-gradient-5" x1="452.27" y1="145.94" x2="467" y2="145.94" xlink:href="#linear-gradient-2"/><linearGradient id="linear-gradient-6" x1="459.64" y1="192.44" x2="478.97" y2="192.44" xlink:href="#linear-gradient-2"/><linearGradient id="linear-gradient-7" x1="481.73" y1="209.47" x2="504.75" y2="209.47" xlink:href="#linear-gradient-2"/><linearGradient id="linear-gradient-8" x1="420.96" y1="148.24" x2="435.7" y2="148.24" xlink:href="#linear-gradient-2"/><linearGradient id="linear-gradient-9" x1="408.99" y1="194.74" x2="428.33" y2="194.74" xlink:href="#linear-gradient-2"/><linearGradient id="linear-gradient-10" x1="383.21" y1="211.77" x2="406.23" y2="211.77" xlink:href="#linear-gradient-2"/><linearGradient id="linear-gradient-11" x1="481.73" y1="89.95" x2="548.03" y2="89.95" xlink:href="#linear-gradient-2"/><linearGradient id="linear-gradient-12" x1="1228.41" y1="151.08" x2="1228.41" y2="196.15" gradientTransform="matrix(0.63, 0.78, -0.78, 0.63, 136.11, -889.76)" gradientUnits="userSpaceOnUse"><stop offset="0" stop-color="#f7adc3"/><stop offset="1" stop-color="#c0228f"/></linearGradient><linearGradient id="linear-gradient-13" x1="1240.32" y1="297.01" x2="1252.45" y2="297.01" xlink:href="#linear-gradient-12"/><linearGradient id="linear-gradient-14" x1="1250.51" y1="343.51" x2="1264.42" y2="343.51" xlink:href="#linear-gradient-12"/><linearGradient id="linear-gradient-15" x1="1265.43" y1="360.54" x2="1288.44" y2="360.54" xlink:href="#linear-gradient-12"/><linearGradient id="linear-gradient-16" x1="1235.58" y1="235.93" x2="1308.32" y2="235.93" xlink:href="#linear-gradient-12"/><linearGradient id="linear-gradient-17" x1="-605.49" y1="297.21" x2="-593.07" y2="297.21" gradientTransform="matrix(-0.63, -0.78, -0.78, 0.63, 525.51, -412.22)" xlink:href="#linear-gradient-12"/><linearGradient id="linear-gradient-18" x1="-595.01" y1="343.71" x2="-581.1" y2="343.71" gradientTransform="matrix(-0.63, -0.78, -0.78, 0.63, 525.51, -412.22)" xlink:href="#linear-gradient-12"/><linearGradient id="linear-gradient-19" x1="-580.1" y1="360.74" x2="-557.08" y2="360.74" gradientTransform="matrix(-0.63, -0.78, -0.78, 0.63, 525.51, -412.22)" xlink:href="#linear-gradient-12"/><linearGradient id="linear-gradient-20" x1="1228.77" y1="1013.12" x2="1228.77" y2="1099.87" gradientTransform="matrix(0.63, 0.78, 0.78, -0.63, -872.03, -67.95)" xlink:href="#linear-gradient-12"/><linearGradient id="linear-gradient-21" x1="-590.82" y1="236.13" x2="-518.08" y2="236.13" gradientTransform="matrix(-0.63, -0.78, -0.78, 0.63, 534.44, -401.26)" xlink:href="#linear-gradient-12"/><linearGradient id="linear-gradient-22" x1="543.81" y1="145.94" x2="662.89" y2="145.94" gradientUnits="userSpaceOnUse"><stop offset="0" stop-color="#989f58"/><stop offset="1" stop-color="#f7adc3"/></linearGradient><linearGradient id="linear-gradient-23" x1="1452.96" y1="-51.63" x2="1452.96" y2="-6.56" gradientTransform="matrix(0.68, -0.74, 0.74, 0.68, -822.55, 1246.86)" xlink:href="#linear-gradient-12"/><linearGradient id="linear-gradient-24" x1="1464.86" y1="94.32" x2="1476.99" y2="94.32" gradientTransform="matrix(0.68, -0.74, 0.74, 0.68, -822.55, 1246.86)" xlink:href="#linear-gradient-12"/><linearGradient id="linear-gradient-25" x1="1475.05" y1="140.81" x2="1488.96" y2="140.81" gradientTransform="matrix(0.68, -0.74, 0.74, 0.68, -822.55, 1246.86)" xlink:href="#linear-gradient-12"/><linearGradient id="linear-gradient-26" x1="1489.97" y1="157.85" x2="1512.99" y2="157.85" gradientTransform="matrix(0.68, -0.74, 0.74, 0.68, -822.55, 1246.86)" xlink:href="#linear-gradient-12"/><linearGradient id="linear-gradient-27" x1="1460.12" y1="33.23" x2="1532.87" y2="33.23" gradientTransform="matrix(0.68, -0.74, 0.74, 0.68, -822.55, 1246.86)" xlink:href="#linear-gradient-12"/><linearGradient id="linear-gradient-28" x1="-829.2" y1="94.26" x2="-816.77" y2="94.26" gradientTransform="matrix(-0.68, 0.74, 0.74, 0.68, -405.23, 792.42)" xlink:href="#linear-gradient-12"/><linearGradient id="linear-gradient-29" x1="-818.72" y1="140.76" x2="-804.8" y2="140.76" gradientTransform="matrix(-0.68, 0.74, 0.74, 0.68, -405.23, 792.42)" xlink:href="#linear-gradient-12"/><linearGradient id="linear-gradient-30" x1="-803.8" y1="157.79" x2="-780.78" y2="157.79" gradientTransform="matrix(-0.68, 0.74, 0.74, 0.68, -405.23, 792.42)" xlink:href="#linear-gradient-12"/><linearGradient id="linear-gradient-31" x1="1453.6" y1="1216.74" x2="1453.6" y2="1303.49" gradientTransform="matrix(0.68, -0.74, -0.74, -0.68, 136.12, 2127.14)" xlink:href="#linear-gradient-12"/><linearGradient id="linear-gradient-32" x1="-814.52" y1="33.17" x2="-741.78" y2="33.17" gradientTransform="matrix(-0.68, 0.74, 0.74, 0.68, -395.67, 782.01)" xlink:href="#linear-gradient-12"/><linearGradient id="linear-gradient-33" x1="239.15" y1="129.98" x2="350.86" y2="129.98" xlink:href="#linear-gradient-22"/><linearGradient id="linear-gradient-34" x1="1365.29" y1="465.6" x2="1365.29" y2="510.67" gradientTransform="translate(1482.79 -836.98) rotate(95.08)" xlink:href="#linear-gradient-2"/><linearGradient id="linear-gradient-35" x1="1367.13" y1="515.27" x2="1367.13" y2="607.39" gradientTransform="translate(1482.79 -836.98) rotate(95.08)" xlink:href="#linear-gradient-2"/><linearGradient id="linear-gradient-36" x1="1294.39" y1="523.96" x2="1294.39" y2="587.14" gradientTransform="translate(1482.79 -836.98) rotate(95.08)" xlink:href="#linear-gradient-2"/><linearGradient id="linear-gradient-37" x1="1374.5" y1="611.54" x2="1389.23" y2="611.54" gradientTransform="translate(1482.79 -836.98) rotate(95.08)" xlink:href="#linear-gradient-2"/><linearGradient id="linear-gradient-38" x1="1381.86" y1="658.04" x2="1401.2" y2="658.04" gradientTransform="translate(1482.79 -836.98) rotate(95.08)" xlink:href="#linear-gradient-2"/><linearGradient id="linear-gradient-39" x1="1403.96" y1="675.07" x2="1426.98" y2="675.07" gradientTransform="translate(1482.79 -836.98) rotate(95.08)" xlink:href="#linear-gradient-2"/><linearGradient id="linear-gradient-40" x1="1343.19" y1="613.84" x2="1357.92" y2="613.84" gradientTransform="translate(1482.79 -836.98) rotate(95.08)" xlink:href="#linear-gradient-2"/><linearGradient id="linear-gradient-41" x1="1331.22" y1="660.34" x2="1350.56" y2="660.34" gradientTransform="translate(1482.79 -836.98) rotate(95.08)" xlink:href="#linear-gradient-2"/><linearGradient id="linear-gradient-42" x1="1305.44" y1="677.37" x2="1328.46" y2="677.37" gradientTransform="translate(1482.79 -836.98) rotate(95.08)" xlink:href="#linear-gradient-2"/><linearGradient id="linear-gradient-43" x1="1403.96" y1="555.55" x2="1470.25" y2="555.55" gradientTransform="translate(1482.79 -836.98) rotate(95.08)" xlink:href="#linear-gradient-2"/><linearGradient id="linear-gradient-44" x1="1348.36" y1="1212.44" x2="1348.36" y2="1257.51" gradientTransform="matrix(0.05, 1, 1, -0.05, -1272.47, -830.16)" xlink:href="#linear-gradient-2"/><linearGradient id="linear-gradient-45" x1="1350.2" y1="1262.11" x2="1350.2" y2="1354.24" gradientTransform="matrix(0.05, 1, 1, -0.05, -1272.47, -830.16)" xlink:href="#linear-gradient-2"/><linearGradient id="linear-gradient-46" x1="1277.46" y1="1270.8" x2="1277.46" y2="1333.98" gradientTransform="matrix(0.05, 1, 1, -0.05, -1272.47, -830.16)" xlink:href="#linear-gradient-2"/><linearGradient id="linear-gradient-47" x1="1357.57" y1="1358.38" x2="1372.3" y2="1358.38" gradientTransform="matrix(0.05, 1, 1, -0.05, -1272.47, -830.16)" xlink:href="#linear-gradient-2"/><linearGradient id="linear-gradient-48" x1="1364.94" y1="1404.88" x2="1384.27" y2="1404.88" gradientTransform="matrix(0.05, 1, 1, -0.05, -1272.47, -830.16)" xlink:href="#linear-gradient-2"/><linearGradient id="linear-gradient-49" x1="1387.03" y1="1421.91" x2="1410.05" y2="1421.91" gradientTransform="matrix(0.05, 1, 1, -0.05, -1272.47, -830.16)" xlink:href="#linear-gradient-2"/><linearGradient id="linear-gradient-50" x1="1326.26" y1="1360.68" x2="1341" y2="1360.68" gradientTransform="matrix(0.05, 1, 1, -0.05, -1272.47, -830.16)" xlink:href="#linear-gradient-2"/><linearGradient id="linear-gradient-51" x1="1314.29" y1="1407.18" x2="1333.63" y2="1407.18" gradientTransform="matrix(0.05, 1, 1, -0.05, -1272.47, -830.16)" xlink:href="#linear-gradient-2"/><linearGradient id="linear-gradient-52" x1="1288.51" y1="1424.22" x2="1311.53" y2="1424.22" gradientTransform="matrix(0.05, 1, 1, -0.05, -1272.47, -830.16)" xlink:href="#linear-gradient-2"/><linearGradient id="linear-gradient-53" x1="1387.03" y1="1302.39" x2="1453.33" y2="1302.39" gradientTransform="matrix(0.05, 1, 1, -0.05, -1272.47, -830.16)" xlink:href="#linear-gradient-2"/><linearGradient id="linear-gradient-54" x1="794.2" y1="372.08" x2="794.2" y2="277.9" xlink:href="#linear-gradient-22"/><linearGradient id="linear-gradient-55" x1="960.17" y1="-597.67" x2="960.17" y2="-552.6" gradientTransform="matrix(1, 0, 0, -1, -517.1, 292.27)" xlink:href="#linear-gradient-2"/><linearGradient id="linear-gradient-56" x1="962.01" y1="-548" x2="962.01" y2="-455.88" gradientTransform="matrix(1, 0, 0, -1, -517.1, 292.27)" xlink:href="#linear-gradient-2"/><linearGradient id="linear-gradient-57" x1="889.27" y1="-539.31" x2="889.27" y2="-476.13" gradientTransform="matrix(1, 0, 0, -1, -517.1, 292.27)" xlink:href="#linear-gradient-2"/><linearGradient id="linear-gradient-58" x1="969.37" y1="-451.73" x2="984.11" y2="-451.73" gradientTransform="matrix(1, 0, 0, -1, -517.1, 292.27)" xlink:href="#linear-gradient-2"/><linearGradient id="linear-gradient-59" x1="976.74" y1="-405.23" x2="996.08" y2="-405.23" gradientTransform="matrix(1, 0, 0, -1, -517.1, 292.27)" xlink:href="#linear-gradient-2"/><linearGradient id="linear-gradient-60" x1="998.84" y1="-388.2" x2="1021.86" y2="-388.2" gradientTransform="matrix(1, 0, 0, -1, -517.1, 292.27)" xlink:href="#linear-gradient-2"/><linearGradient id="linear-gradient-61" x1="938.07" y1="-449.43" x2="952.8" y2="-449.43" gradientTransform="matrix(1, 0, 0, -1, -517.1, 292.27)" xlink:href="#linear-gradient-2"/><linearGradient id="linear-gradient-62" x1="926.1" y1="-402.93" x2="945.43" y2="-402.93" gradientTransform="matrix(1, 0, 0, -1, -517.1, 292.27)" xlink:href="#linear-gradient-2"/><linearGradient id="linear-gradient-63" x1="900.32" y1="-385.9" x2="923.34" y2="-385.9" gradientTransform="matrix(1, 0, 0, -1, -517.1, 292.27)" xlink:href="#linear-gradient-2"/><linearGradient id="linear-gradient-64" x1="998.84" y1="-507.72" x2="1065.13" y2="-507.72" gradientTransform="matrix(1, 0, 0, -1, -517.1, 292.27)" xlink:href="#linear-gradient-2"/><linearGradient id="linear-gradient-65" x1="78.6" y1="317.87" x2="180.74" y2="317.87" xlink:href="#linear-gradient-22"/><linearGradient id="linear-gradient-66" x1="971.07" y1="409.99" x2="971.07" y2="455.06" gradientTransform="matrix(0.71, 0.71, 0.71, -0.71, -837.24, 372.8)" xlink:href="#linear-gradient-12"/><linearGradient id="linear-gradient-67" x1="982.98" y1="555.93" x2="995.11" y2="555.93" gradientTransform="matrix(0.71, 0.71, 0.71, -0.71, -837.24, 372.8)" xlink:href="#linear-gradient-12"/><linearGradient id="linear-gradient-68" x1="993.17" y1="602.43" x2="1007.08" y2="602.43" gradientTransform="matrix(0.71, 0.71, 0.71, -0.71, -837.24, 372.8)" xlink:href="#linear-gradient-12"/><linearGradient id="linear-gradient-69" x1="1008.09" y1="619.46" x2="1031.11" y2="619.46" gradientTransform="matrix(0.71, 0.71, 0.71, -0.71, -837.24, 372.8)" xlink:href="#linear-gradient-12"/><linearGradient id="linear-gradient-70" x1="978.24" y1="494.84" x2="1050.99" y2="494.84" gradientTransform="matrix(0.71, 0.71, 0.71, -0.71, -837.24, 372.8)" xlink:href="#linear-gradient-12"/><linearGradient id="linear-gradient-71" x1="-347.32" y1="555.87" x2="-334.89" y2="555.87" gradientTransform="translate(-399.92 808.02) rotate(-135.13)" xlink:href="#linear-gradient-12"/><linearGradient id="linear-gradient-72" x1="-336.83" y1="602.37" x2="-322.92" y2="602.37" gradientTransform="translate(-399.92 808.02) rotate(-135.13)" xlink:href="#linear-gradient-12"/><linearGradient id="linear-gradient-73" x1="-321.92" y1="619.4" x2="-298.9" y2="619.4" gradientTransform="translate(-399.92 808.02) rotate(-135.13)" xlink:href="#linear-gradient-12"/><linearGradient id="linear-gradient-74" x1="971.72" y1="755.12" x2="971.72" y2="841.88" gradientTransform="translate(80.89 -549.68) rotate(44.87)" xlink:href="#linear-gradient-12"/><linearGradient id="linear-gradient-75" x1="-332.64" y1="494.78" x2="-259.89" y2="494.78" gradientTransform="translate(-389.9 817.99) rotate(-135.13)" xlink:href="#linear-gradient-12"/><linearGradient id="linear-gradient-76" x1="603.1" y1="9.39" x2="603.1" y2="54.46" gradientTransform="translate(1205.3 363.34) rotate(136.75)" xlink:href="#linear-gradient-12"/><linearGradient id="linear-gradient-77" x1="615" y1="155.33" x2="627.14" y2="155.33" gradientTransform="translate(1205.3 363.34) rotate(136.75)" xlink:href="#linear-gradient-12"/><linearGradient id="linear-gradient-78" x1="625.19" y1="201.83" x2="639.11" y2="201.83" gradientTransform="translate(1205.3 363.34) rotate(136.75)" xlink:href="#linear-gradient-12"/><linearGradient id="linear-gradient-79" x1="640.11" y1="218.86" x2="663.13" y2="218.86" gradientTransform="translate(1205.3 363.34) rotate(136.75)" xlink:href="#linear-gradient-12"/><linearGradient id="linear-gradient-80" x1="610.26" y1="94.24" x2="683.01" y2="94.24" gradientTransform="translate(1205.3 363.34) rotate(136.75)" xlink:href="#linear-gradient-12"/><linearGradient id="linear-gradient-81" x1="20.66" y1="155.27" x2="33.08" y2="155.27" gradientTransform="matrix(0.73, -0.69, -0.69, -0.73, 755.86, 786.03)" xlink:href="#linear-gradient-12"/><linearGradient id="linear-gradient-82" x1="31.14" y1="201.77" x2="45.05" y2="201.77" gradientTransform="matrix(0.73, -0.69, -0.69, -0.73, 755.86, 786.03)" xlink:href="#linear-gradient-12"/><linearGradient id="linear-gradient-83" x1="46.06" y1="218.8" x2="69.08" y2="218.8" gradientTransform="matrix(0.73, -0.69, -0.69, -0.73, 755.86, 786.03)" xlink:href="#linear-gradient-12"/><linearGradient id="linear-gradient-84" x1="603.74" y1="1155.72" x2="603.74" y2="1242.48" gradientTransform="matrix(-0.73, 0.69, 0.69, 0.73, 313.61, -584.72)" xlink:href="#linear-gradient-12"/><linearGradient id="linear-gradient-85" x1="35.34" y1="94.18" x2="108.08" y2="94.18" gradientTransform="matrix(0.73, -0.69, -0.69, -0.73, 745.56, 795.71)" xlink:href="#linear-gradient-12"/><linearGradient id="linear-gradient-86" x1="715.68" y1="629.48" x2="673.03" y2="701.14" gradientTransform="translate(-821.21 491.48) rotate(-37.46)" xlink:href="#linear-gradient-22"/><linearGradient id="linear-gradient-87" x1="779.73" y1="1058.47" x2="784.81" y2="962.82" gradientTransform="translate(-672.88 1607.01) rotate(-93.04)" xlink:href="#linear-gradient-22"/><linearGradient id="linear-gradient-88" x1="723.26" y1="1323.09" x2="821.05" y2="1368.5" gradientTransform="matrix(-0.61, -0.79, 0.79, -0.61, -9.66, 2197.58)" xlink:href="#linear-gradient-22"/><linearGradient id="linear-gradient-89" x1="1220.24" y1="657.59" x2="1279.67" y2="722.69" gradientTransform="translate(310.57 -739.07) rotate(42.39)" xlink:href="#linear-gradient-22"/></defs><title>logo</title><g id="Layer_1" data-name="Layer 1"><circle class="cls-1" cx="449.9" cy="444.22" r="237"/><path class="cls-2" d="M919.33,465.74s-1.62-10.55,0-11.36,2.84,0,2.84-1,0-3.92,1.42-4.39.2-2.51,0-4.53a13.75,13.75,0,0,1,.68-6.29c.74-1.62,1.76-3.45,2-4.26s5.68-3.65,7.51-2.23,3.25,5.27,4.26,5.07,1.1-2,3.08-1.83,4.62,2.23,7.26,2.23,5.07-3.65,8.32-3.25a22.26,22.26,0,0,1,5.88,1.62s2.84-3.45,3.85-2.43,1.42,3.65,3,4.26,2.84,3.54,2,4.91-3.25,2.61-5.27,6.25-1.42,7.14-2.84,8-4.87,8.4-6.09,9.21-2.43-3.45-3.85-2.64-5.53,3.65-8.25,10.55" transform="translate(-517.1 -34.62)"/><g id="wEU59Q.tif"><path class="cls-3" d="M982.2,619.94H851.54V347.65H1098.7v94.11c-.4-1.88-1.44-3.51-3.44-3-3.27.76-6.42,2-9.61,3.12a20.44,20.44,0,0,0-4.09,1.48c-4.39,2.65-7.49,2.71-11.49-.06,1.16-3.64.91-4.58-2-6.88-3.36-2.62-6.88-5.05-10.07-7.86-1.64-1.44-2.74-3.51-4-5.33s-2.43-4.28-4.19-5.79a8.18,8.18,0,0,1-3.18-6.19,12.42,12.42,0,0,0-4.36-9.43,6.75,6.75,0,0,1-2-2.7,33.43,33.43,0,0,0-7.34-11.42,5.76,5.76,0,0,1-.84-1.35c.79-.92,1.62-1.45,1.66-2a53.73,53.73,0,0,0,.12-7.73c-.35-4.63-2.23-6.22-6.8-6.56a28.5,28.5,0,0,1-4.86-1.21l0-.63-2.33,1.77c-.8-1.91-2.12-.83-3.24-.52s-2.45,1.28-3.62,1.2a51.84,51.84,0,0,1-19.29-4.72c-5.26-2.56-11.25.4-11.91,6.21-.26,2.29-.85,2.59-3,1.59-1.91-.91-3.89-1.69-5.76-2.68a9.3,9.3,0,0,1-3-2.2,7.75,7.75,0,0,0-4.9-2.95c-3.55-.7-7.89,0-9.32-4,.29-2,.47-3.56.72-5.08a6.15,6.15,0,0,1,.58-2.31c1.49-2.3.59-4.42-2.1-4.79-.29,0-.71-.23-.79-.45-.63-1.85-2.18-1.15-3.28-1-2.41.24-4.78,1-7.19,1.18-2.92.25-5.88,0-8.8.24-4.73.37-9.6-.1-14,2.47-3.71,2.17-7.63,3.74-12,2.16a8,8,0,0,1-2.84-1.64c-2.07-2-2.42-2.13-4.18.27a26.14,26.14,0,0,1-9.21,8c-3.72,1.91-5.44,5.19-6.49,8.93-1.31,4.72-4.25,7.54-9.06,8.51a5.82,5.82,0,0,0-2.86,1.27,73,73,0,0,0-6.56,7.17c-3.17,4.13-5.92,8.59-9.17,12.65-1.82,2.26-2.08,4.62-2,7.24.11,2.23.4,4.47.3,6.68a33.61,33.61,0,0,1-4.41,15.38,4.07,4.07,0,0,0-.07,3.16,6.87,6.87,0,0,1,.57,4.08,7.72,7.72,0,0,0,.82,5,67.07,67.07,0,0,0,6.67,8.63,11.21,11.21,0,0,1,3,5.41,9.11,9.11,0,0,0,2.41,4.27c3.46,3.53,7.13,6.85,10.72,10.25a13.33,13.33,0,0,0,13,3.51,31.12,31.12,0,0,1,11.47-.75,16.58,16.58,0,0,0,10.26-1.46c3.41-1.57,6.87-3,10.83-3.16,4.32-.21,7.57.68,9.21,5a3.15,3.15,0,0,0,3.48,2c2.12-.12,4.25-.26,6.37-.43,1.92-.16,5,2,4.74,3.81a93.68,93.68,0,0,1-2.18,12.7c-.57,2.11-.68,3.87.44,5.6a58,58,0,0,0,4.64,6.48,43.07,43.07,0,0,1,7.44,11.91c1.84,4.48,2.47,9.2,3.68,13.8a10.92,10.92,0,0,1-1.6,9.72c-4.21,6.49-5.43,13.7-2.48,21.09a84.73,84.73,0,0,0,5.3,10.32,29.23,29.23,0,0,1,4.11,12.66,26.53,26.53,0,0,0,4.17,12.38c2.94,4.73,5.5,9.7,8.27,14.64-2.42,1.59-1.86,3.42-.61,5C978.75,616.33,980.53,618.09,982.2,619.94Z" transform="translate(-517.1 -34.62)"/><path class="cls-3" d="M1098.7,448.16V619.94H985.4c4.44-.64,8.9-1.17,13.32-1.94,3.55-.62,7.46-.78,10.46-2.47,3.81-2.15,7-5.53,10.19-8.62,2.17-2.1,3.7-4.87,5.93-6.89,2.38-2.16,4.49-4.85,4.5-7.65,0-5.09,2.69-7.09,6.75-8.75,2.46-1,4.36-3,4.3-5.93a36.65,36.65,0,0,0-.88-8.52,5.47,5.47,0,0,1,1.4-5.67,7.39,7.39,0,0,1,1.43-1.13c4.27-2.76,8.5-5.59,12.84-8.24,3.62-2.22,5.95-5.15,6-9.52s.21-8.67.11-13a18.91,18.91,0,0,0-1-4.81c-.79-2.65-1.86-5.22-2.52-7.9a55.07,55.07,0,0,1-1-7c-.23-2-.41-3.88,1.59-5.46,1.13-.89,1.53-2.7,2.26-4.09a12.21,12.21,0,0,1,1.26-2.34,290.63,290.63,0,0,1,20.14-21.41c5.91-5.65,8.95-13.29,12.09-20.72C1095.9,454.63,1097.31,451.4,1098.7,448.16Z" transform="translate(-517.1 -34.62)"/><path class="cls-4" d="M1022.14,369.59a28.5,28.5,0,0,0,4.86,1.21c4.57.34,6.45,1.93,6.8,6.56a53.73,53.73,0,0,1-.12,7.73c0,.58-.87,1.1-1.66,2a5.76,5.76,0,0,0,.84,1.35,33.43,33.43,0,0,1,7.34,11.42,6.75,6.75,0,0,0,2,2.7,12.42,12.42,0,0,1,4.36,9.43,8.18,8.18,0,0,0,3.18,6.19c1.75,1.51,2.79,3.85,4.19,5.79s2.4,3.88,4,5.33c3.19,2.81,6.72,5.23,10.07,7.86,2.94,2.3,3.2,3.24,2,6.88,4,2.77,7.1,2.71,11.49.06a20.44,20.44,0,0,1,4.09-1.48c3.19-1.08,6.34-2.36,9.61-3.12,2-.46,3,1.16,3.44,3V449c-1.39,3.24-2.8,6.47-4.17,9.72-3.14,7.44-6.17,15.08-12.09,20.72a290.63,290.63,0,0,0-20.14,21.41,12.21,12.21,0,0,0-1.26,2.34c-.73,1.39-1.13,3.2-2.26,4.09-2,1.59-1.81,3.46-1.59,5.46a55.07,55.07,0,0,0,1,7c.66,2.68,1.73,5.25,2.52,7.9a18.91,18.91,0,0,1,1,4.81c.1,4.33,0,8.67-.11,13s-2.41,7.31-6,9.52c-4.34,2.65-8.57,5.48-12.84,8.24a7.39,7.39,0,0,0-1.43,1.13A5.47,5.47,0,0,0,1040,570a36.65,36.65,0,0,1,.88,8.52c.07,2.93-1.84,4.93-4.3,5.93-4.06,1.65-6.74,3.66-6.75,8.75,0,2.81-2.11,5.5-4.5,7.65-2.23,2-3.76,4.79-5.93,6.89-3.21,3.1-6.38,6.47-10.19,8.62-3,1.7-6.91,1.86-10.46,2.47-4.42.77-8.88,1.3-13.32,1.94h-3.2c-1.67-1.85-3.45-3.61-5-5.57-1.25-1.61-1.81-3.44.61-5-2.77-4.94-5.33-9.91-8.27-14.64a26.53,26.53,0,0,1-4.17-12.38,29.23,29.23,0,0,0-4.11-12.66,84.73,84.73,0,0,1-5.3-10.32c-3-7.39-1.73-14.6,2.48-21.09a10.92,10.92,0,0,0,1.6-9.72c-1.21-4.6-1.83-9.32-3.68-13.8A43.07,43.07,0,0,0,949,503.63a58,58,0,0,1-4.64-6.48c-1.12-1.73-1-3.49-.44-5.6a93.68,93.68,0,0,0,2.18-12.7c.22-1.77-2.82-4-4.74-3.81-2.12.17-4.24.3-6.37.43a3.15,3.15,0,0,1-3.48-2c-1.65-4.34-4.89-5.23-9.21-5-4,.19-7.42,1.59-10.83,3.16a16.58,16.58,0,0,1-10.26,1.46,31.12,31.12,0,0,0-11.47.75,13.33,13.33,0,0,1-13-3.51c-3.59-3.4-7.26-6.72-10.72-10.25a9.11,9.11,0,0,1-2.41-4.27,11.21,11.21,0,0,0-3-5.41,67.07,67.07,0,0,1-6.67-8.63,7.72,7.72,0,0,1-.82-5,6.87,6.87,0,0,0-.57-4.08,4.07,4.07,0,0,1,.07-3.16A33.61,33.61,0,0,0,857,414.13c.11-2.22-.19-4.45-.3-6.68-.13-2.62.14-5,2-7.24,3.26-4.06,6-8.52,9.17-12.65a73,73,0,0,1,6.56-7.17,5.82,5.82,0,0,1,2.86-1.27c4.81-1,7.74-3.79,9.06-8.51,1-3.74,2.77-7,6.49-8.93a26.14,26.14,0,0,0,9.21-8c1.76-2.41,2.12-2.29,4.18-.27a8,8,0,0,0,2.84,1.64c4.4,1.58,8.32,0,12-2.16,4.39-2.57,9.26-2.09,14-2.47,2.92-.23,5.88,0,8.8-.24,2.41-.2,4.78-.94,7.19-1.18,1.1-.11,2.66-.81,3.28,1,.07.22.5.41.79.45,2.7.37,3.59,2.5,2.1,4.79a6.15,6.15,0,0,0-.58,2.31c-.25,1.51-.43,3-.72,5.08,1.42,4,5.76,3.29,9.32,4a7.75,7.75,0,0,1,4.9,2.95,9.3,9.3,0,0,0,3,2.2c1.87,1,3.85,1.77,5.76,2.68,2.1,1,2.69.7,3-1.59.66-5.81,6.66-8.77,11.91-6.21a51.84,51.84,0,0,0,19.29,4.72c1.17.08,2.39-.86,3.62-1.2s2.45-1.39,3.24.52C1019.85,370.72,1021.61,369.44,1022.14,369.59Zm-.21,4.73-4.78-.19c-1.64.3-3.07.88-4.43.76a59,59,0,0,1-20.61-5.13c-1.9-.91-3.61-1-5,.43a7.67,7.67,0,0,0-1.85,3.65c-.81,4.14-2.88,5.63-6.73,4.22-3-1.09-5.86-2.45-8.73-3.8a4.29,4.29,0,0,1-1.84-1.64c-1-1.86-2.63-2.43-4.63-2.81a35,35,0,0,1-7.93-2.4c-1.11-.5-1.78-1.8-3.41-1.74-.56,0-1.74-1.34-1.65-1.91a6.85,6.85,0,0,1,1.7-3.15c1.46-1.65,1.27-6.24-.5-7.45a1.74,1.74,0,0,0-1.07-.15c-2.39.25-4.77.63-7.16.77-2.61.16-5.24-.05-7.84.17a84.35,84.35,0,0,0-11.66,1.47c-2.45.56-4.64,2.19-7,3.25a5,5,0,0,1-2.61.62c-3.45-.56-6.87-1.32-10-2-3,2.28-6,5-9.41,7a11.77,11.77,0,0,0-5.28,7.36,13.93,13.93,0,0,1-11,10.58,4.3,4.3,0,0,0-2.06.86,72.51,72.51,0,0,0-5.91,6.52c-3.06,4-5.73,8.35-8.89,12.29-1.68,2.09-1.64,4.08-1.11,6.35a7,7,0,0,1,.37,2c-.47,6.46-1.25,12.89-4.16,18.78a4.47,4.47,0,0,0-.15,4.36,4.33,4.33,0,0,1,0,3,4.07,4.07,0,0,0,.82,4.42c2.49,3,5,5.89,7.4,8.95a20.28,20.28,0,0,1,1.78,3.61c.79,1.6,1.27,3.49,2.45,4.72,3.09,3.25,6.53,6.15,9.74,9.29,3,3,6.4,4.07,10.6,2.79a23.17,23.17,0,0,1,12.62-.67c3.12.81,5.59-.08,8.23-1.32,5.16-2.42,10.47-3.91,16.31-3.2,2.91.35,5.11,1.29,6.29,4.07,1,2.4,2.6,3.27,5.37,2.83s5.89-1.87,8.11,1.4c.13.19.84,0,1.28,0a1.85,1.85,0,0,1,2.09,2.31c-.57,5-.51,10.24-2,15-1.23,3.83.25,6,2.14,8.57a38.59,38.59,0,0,0,2.58,3.2c8,8.67,10,19.7,12,30.69.48,2.6-1,4.62-2.35,6.69-4.39,6.58-5.54,13.58-2.15,20.94,1.27,2.75,2.91,5.33,4.38,8,2.18,3.94,4,7.93,4.43,12.56a29,29,0,0,0,2.4,9.63c2.73,5.72,6,11.21,9.23,16.68,1.23,2.08,2.22,3.82-.38,5.58.62.75,1.11,1.33,1.57,1.92a4.1,4.1,0,0,0,4.46,1.71c4.61-.77,9.35-.8,14-1.47,2.81-.41,5.92-.87,8.21-2.36,3.38-2.21,6.24-5.25,9.12-8.14,1.93-1.92,3.3-4.43,5.32-6.23,2.67-2.4,4.34-5.27,4.27-8.7-.08-3.65,1.55-5.41,4.69-6.79,6.51-2.88,7.11-4.4,5.45-11.35-.09-.37-.24-.72-.34-1.09-1.34-5-.88-6.67,3.33-9.62s8.81-6,13.34-8.73c2.92-1.79,5-3.92,5-7.55,0-4.26.18-8.52.08-12.78a12.75,12.75,0,0,0-1.19-3.61A48.75,48.75,0,0,1,1055,522a70.15,70.15,0,0,1-1.2-9.48c-.18-2.8-.81-5.88,2.58-7.56a1.88,1.88,0,0,0,.86-1.29c.37-3.5,3-5.53,5.09-7.84,4.9-5.3,9.91-10.49,14.76-15.84,2.69-3,5.74-5.84,7.58-9.31,3.7-7,6.78-14.24,9.89-21.48.76-1.76.62-3.91.88-5.81-2.71.74-5,1.23-7.18,2-2.57.91-5.05,2.06-7.56,3.14-5.25,2.27-10,.31-15-1.81.28-1.19.29-2.59.93-3.61.93-1.49.56-2.3-.67-3.23-3.41-2.56-6.92-5-10.09-7.83a21.29,21.29,0,0,1-4.79-6.18c-1.12-2.23-2.16-4.31-4.25-5.75a7.31,7.31,0,0,1-3.42-6.09c-.13-4-1.42-7.54-4.71-10.19-.88-.71-1.25-2-1.89-3q-3.09-4.86-6.22-9.7c-.61-.94-1.28-1.84-1.85-2.8-1.51-2.53-1.38-3.45-2.84-6-.44-.77-.34,0-.28-.77A3.94,3.94,0,0,1,1027,379c.32-.25,1.65.32,2.17.86,1.36,1.4.08-.27,1.6,1.58a28,28,0,0,0-.53-4.53c-.26-.89-1-2.18-1.7-2.29a42.49,42.49,0,0,0-6.48-.27" transform="translate(-517.1 -34.62)"/><path class="cls-3" d="M1095.41,442.54c-.26,1.9-.12,4.05-.88,5.81-3.11,7.25-6.19,14.53-9.89,21.48-1.85,3.47-4.89,6.34-7.58,9.31-4.85,5.35-9.86,10.54-14.76,15.84-2.14,2.31-4.73,4.34-5.09,7.84a1.88,1.88,0,0,1-.86,1.29c-3.39,1.68-2.76,4.77-2.58,7.56a70.15,70.15,0,0,0,1.2,9.48,48.75,48.75,0,0,0,2.22,6.39,12.75,12.75,0,0,1,1.19,3.61c.1,4.26-.08,8.52-.08,12.78,0,3.63-2,5.77-5,7.55-4.53,2.77-9,5.68-13.34,8.73s-4.67,4.62-3.33,9.62c.1.37.25.72.34,1.09,1.66,6.95,1.06,8.47-5.45,11.35-3.14,1.39-4.77,3.14-4.69,6.79.07,3.44-1.59,6.3-4.27,8.7-2,1.81-3.39,4.31-5.32,6.23-2.89,2.88-5.75,5.93-9.12,8.14-2.28,1.49-5.39,2-8.21,2.36-4.64.67-9.37.7-14,1.47a4.1,4.1,0,0,1-4.46-1.71c-.47-.59-1-1.16-1.57-1.92,2.6-1.76,1.61-3.51.38-5.58-3.24-5.47-6.5-11-9.23-16.68a29,29,0,0,1-2.4-9.63c-.44-4.63-2.26-8.63-4.43-12.56-1.47-2.66-3.12-5.24-4.38-8-3.39-7.36-2.23-14.36,2.15-20.94,1.37-2.06,2.83-4.09,2.35-6.69-2-11-4-22-12-30.69a38.59,38.59,0,0,1-2.58-3.2c-1.89-2.54-3.36-4.73-2.14-8.57,1.51-4.72,1.45-9.94,2-15a1.85,1.85,0,0,0-2.09-2.31c-.44,0-1.15.21-1.28,0-2.23-3.26-5.39-1.83-8.11-1.4s-4.35-.43-5.37-2.83c-1.18-2.78-3.38-3.72-6.29-4.07-5.83-.71-11.15.78-16.31,3.2-2.64,1.24-5.11,2.13-8.23,1.32a23.17,23.17,0,0,0-12.62.67c-4.2,1.29-7.56.18-10.6-2.79-3.21-3.14-6.65-6-9.74-9.29-1.17-1.23-1.66-3.12-2.45-4.72a20.28,20.28,0,0,0-1.78-3.61c-2.38-3.05-4.91-6-7.4-8.95a4.07,4.07,0,0,1-.82-4.42,4.33,4.33,0,0,0,0-3,4.47,4.47,0,0,1,.15-4.36c2.91-5.89,3.69-12.32,4.16-18.78a7,7,0,0,0-.37-2c-.53-2.28-.57-4.26,1.11-6.35,3.16-3.94,5.83-8.26,8.89-12.29a72.51,72.51,0,0,1,5.91-6.52,4.3,4.3,0,0,1,2.06-.86,13.93,13.93,0,0,0,11-10.58,11.77,11.77,0,0,1,5.28-7.36c3.38-2.09,6.4-4.76,9.41-7,3.18.63,6.6,1.39,10,2a5,5,0,0,0,2.61-.62c2.35-1.06,4.54-2.69,7-3.25a84.35,84.35,0,0,1,11.66-1.47c2.6-.22,5.24,0,7.84-.17,2.39-.14,4.77-.52,7.16-.77a1.74,1.74,0,0,1,1.07.15c1.77,1.21,2,5.8.5,7.45a6.85,6.85,0,0,0-1.7,3.15c-.1.56,1.09,1.93,1.65,1.91,1.63-.07,2.29,1.23,3.41,1.74a35,35,0,0,0,7.93,2.4c2,.38,3.59.95,4.63,2.81a4.29,4.29,0,0,0,1.84,1.64c2.87,1.35,5.75,2.71,8.73,3.8,3.85,1.41,5.92-.08,6.73-4.22a7.67,7.67,0,0,1,1.85-3.65c1.39-1.46,3.09-1.34,5-.43a59,59,0,0,0,20.61,5.13c1.37.12,2.79-.46,4.43-.76l.89,2.44c1.46,0,3.33,1,3.67-1.68,0-.21.22-.57.33-.57a42.49,42.49,0,0,1,6.48.27c.69.12,1.44,1.41,1.7,2.29a28,28,0,0,1,.53,4.53c-1.52-1.85-2.68-3.43-4-4.83-.52-.54-1.85-1.12-2.17-.86a3.94,3.94,0,0,0-1.4,2.51c-.06.77.65,1.62,1.09,2.4q2.2,3.83,4.47,7.63c.57,1,1.24,1.86,1.85,2.8q3.12,4.85,6.22,9.7c.64,1,1,2.33,1.89,3,3.29,2.66,4.58,6.15,4.71,10.19a7.31,7.31,0,0,0,3.42,6.09c2.09,1.44,3.13,3.53,4.25,5.75a21.29,21.29,0,0,0,4.79,6.18c3.17,2.83,6.69,5.27,10.09,7.83,1.23.93,1.6,1.74.67,3.23-.64,1-.65,2.42-.93,3.61,5,2.12,9.76,4.07,15,1.81,2.51-1.08,5-2.23,7.56-3.14C1090.42,443.77,1092.7,443.28,1095.41,442.54Z" transform="translate(-517.1 -34.62)"/></g><path class="cls-5" d="M917.2,467.87s-1.76-11.42,0-12.29,3.07,0,3.07-1.1,0-4.24,1.54-4.75.22-2.71,0-4.91a14.88,14.88,0,0,1,.73-6.81c.8-1.76,1.9-3.73,2.12-4.61s6.15-4,8.12-2.42,3.51,5.71,4.61,5.49,1.19-2.2,3.34-2,5,2.42,7.86,2.42,5.49-4,9-3.51a24.09,24.09,0,0,1,6.37,1.76s3.07-3.73,4.17-2.63,1.54,4,3.29,4.61,3.07,3.83,2.2,5.32-3.51,2.82-5.71,6.76-1.54,7.73-3.07,8.69-5.27,9.09-6.59,10-2.63-3.73-4.17-2.85-6,4-8.92,11.42" transform="translate(-517.1 -34.62)"/><polygon class="cls-6" points="419.12 0 467 0 443.06 45.07 419.12 0"/><polygon class="cls-7" points="398.87 49.67 490.94 49.67 443.06 141.8 398.87 49.67"/><polygon class="cls-8" points="395.18 58.36 405.31 80.11 375.39 103.12 339.02 121.54 371.24 95.73 395.18 58.36"/><polygon class="cls-9" points="463.32 121.54 452.27 141.8 467 170.34 463.32 121.54"/><polygon class="cls-10" points="467 170.34 459.64 190.59 478.97 214.53 467 170.34"/><polygon class="cls-11" points="481.73 204.41 485.42 214.53 504.75 214.53 481.73 204.41"/><polygon class="cls-12" points="424.65 123.84 435.7 144.1 420.96 172.64 424.65 123.84"/><polygon class="cls-13" points="420.96 172.64 428.33 192.9 409 216.84 420.96 172.64"/><polygon class="cls-14" points="406.23 206.71 402.55 216.84 383.21 216.84 406.23 206.71"/><polygon class="cls-15" points="491.86 58.36 481.73 80.11 511.66 103.12 548.03 121.54 515.8 95.73 491.86 58.36"/><polygon class="cls-16" points="785.77 146.65 804.26 169.33 760.14 186.54 785.77 146.65"/><polygon class="cls-17" points="713.66 250.55 699.13 251.48 678.15 284.23 713.66 250.55"/><polygon class="cls-18" points="678.15 284.23 662.71 294.31 651.45 321.43 678.15 284.23"/><polygon class="cls-19" points="659.94 315.81 654.42 325.06 666.63 340.05 659.94 315.81"/><polygon class="cls-20" points="756.76 198.41 746.97 214.71 744.52 243.32 756.73 292.28 753.66 249.53 756.76 198.41"/><polygon class="cls-21" points="691 222.75 688.02 236.45 650.85 250.72 691 222.75"/><polygon class="cls-22" points="650.85 250.72 637.86 263.81 609.02 269.36 650.85 250.72"/><polygon class="cls-23" points="616.24 262.18 606.06 265.73 593.85 250.74 616.24 262.18"/><polygon class="cls-24" points="670.76 221.47 708.49 267.77 756.51 189.37 670.76 221.47"/><polygon class="cls-25" points="747.62 187.19 729.67 193.49 701.16 190.11 655.67 168.28 696.93 179.91 747.62 187.19"/><polyline class="cls-26" points="545.81 120.42 568.29 129.88 588.8 102.05 570.51 158.31 585.32 135.98 587.14 141.8 595.45 137.49 598.36 149.73 605.21 141.28 605.65 154.6 639.46 97.8 599.51 194.08 619.58 159.5 627.8 160.66 629.19 166.3 638.18 164.18 660.89 169.21"/><polygon class="cls-27" points="112.17 152.48 131.96 130.92 155.32 172.11 112.17 152.48"/><polygon class="cls-28" points="225.35 208.9 228.37 223.14 263.79 239.19 225.35 208.9"/><polygon class="cls-29" points="263.79 239.19 275.99 253.03 304.44 260.27 263.79 239.19"/><polygon class="cls-30" points="297.66 252.68 307.61 256.81 320.69 242.57 297.66 252.68"/><polygon class="cls-31" points="167.56 173.74 185.1 181.09 213.76 179.4 260.46 160.28 218.59 169.46 167.56 173.74"/><polygon class="cls-32" points="201.1 235.32 215.09 236.3 234.56 271.04 201.1 235.32"/><polygon class="cls-33" points="234.56 271.04 249.38 282.01 259.02 309.74 234.56 271.04"/><polygon class="cls-34" points="250.88 303.63 255.84 313.2 242.77 327.44 250.88 303.63"/><polygon class="cls-35" points="202.75 255.53 243.14 211.54 158.65 175.29 202.75 255.53"/><polygon class="cls-36" points="157.78 184.4 166.59 201.25 167.34 229.96 152.28 278.11 157.85 235.61 157.78 184.4"/><polyline class="cls-37" points="241.15 166.13 260.46 160.28 251.82 120.79 278.83 173.43 273.43 147.19 278.84 150 281.64 141.06 292.37 147.63 291.21 136.81 300.97 145.9 284.53 81.87 324.63 178.09 314.26 139.48 320.89 134.46 325.86 137.46 330.7 129.58 348.86 115.62"/><polygon class="cls-38" points="900.35 457.92 896.11 505.61 853.34 477.78 900.35 457.92"/><polygon class="cls-39" points="852.67 433.35 844.52 525.06 756.99 469.22 852.67 433.35"/><polygon class="cls-40" points="844.34 428.91 821.78 437.07 801.5 405.23 786.37 367.38 809.23 401.76 844.34 428.91"/><polygon class="cls-41" points="775.38 491.19 756.17 478.39 726.44 490.54 775.38 491.19"/><polygon class="cls-42" points="726.44 490.54 706.91 481.41 681.36 498.55 726.44 490.54"/><polygon class="cls-43" points="691.2 502.2 680.79 504.97 679.08 524.23 691.2 502.2"/><polygon class="cls-44" points="776.5 452.47 755.35 461.68 728.22 444.48 776.5 452.47"/><polygon class="cls-45" points="728.22 444.48 707.39 450.02 685.26 428.65 728.22 444.48"/><polygon class="cls-46" points="695.59 426.79 685.83 422.23 687.54 402.97 695.59 426.79"/><polygon class="cls-47" points="835.78 525.21 815.02 513.2 789.44 540.97 767.88 575.57 796.44 545.75 835.78 525.21"/><polygon class="cls-48" points="0 436.7 2.22 484.53 46.13 458.53 0 436.7"/><polygon class="cls-49" points="48.68 414.17 52.94 506.14 142.75 454.05 48.68 414.17"/><polygon class="cls-50" points="57.19 410.09 79.38 419.2 100.99 388.24 117.7 351.06 93.41 384.44 57.19 410.09"/><polygon class="cls-51" points="123.45 475.22 143.18 463.25 172.37 476.64 123.45 475.22"/><polygon class="cls-52" points="172.37 476.64 192.27 468.35 217.08 486.55 172.37 476.64"/><polygon class="cls-53" points="207.09 489.78 217.38 492.99 218.27 512.31 207.09 489.78"/><polygon class="cls-54" points="123.96 436.49 144.71 446.59 172.54 430.55 123.96 436.49"/><polygon class="cls-55" points="172.54 430.55 193.12 436.97 216.14 416.55 172.54 430.55"/><polygon class="cls-56" points="205.89 414.25 215.84 410.11 214.94 390.79 205.89 414.25"/><polygon class="cls-57" points="61.66 506.66 82.92 495.54 107.3 524.36 127.38 559.84 100.11 528.85 61.66 506.66"/><polyline class="cls-58" points="755.55 279.9 760.07 302.83 803.09 295.94 750.6 323.25 776.81 317.7 774.04 323.13 782.99 325.88 776.47 336.64 787.29 335.42 778.26 345.23 842.19 328.43 746.2 369.07 784.75 358.49 794.2 367.38 788.17 370.07"/><polygon class="cls-59" points="419.12 889.94 467 889.94 443.06 844.87 419.12 889.94"/><polygon class="cls-60" points="398.87 840.27 490.94 840.27 443.06 748.14 398.87 840.27"/><polygon class="cls-61" points="395.18 831.58 405.31 809.83 375.39 786.81 339.02 768.4 371.24 794.21 395.18 831.58"/><polygon class="cls-62" points="463.32 768.4 452.27 748.14 467 719.6 463.32 768.4"/><polygon class="cls-63" points="467 719.6 459.64 699.34 478.97 675.4 467 719.6"/><polygon class="cls-64" points="481.73 685.53 485.42 675.4 504.75 675.4 481.73 685.53"/><polygon class="cls-65" points="424.65 766.1 435.7 745.84 420.96 717.3 424.65 766.1"/><polygon class="cls-66" points="420.96 717.3 428.33 697.04 409 673.1 420.96 717.3"/><polygon class="cls-67" points="406.23 683.23 402.55 673.1 383.21 673.1 406.23 683.23"/><polygon class="cls-68" points="491.86 831.58 481.73 809.83 511.66 786.81 548.03 768.4 515.8 794.21 491.86 831.58"/><polyline class="cls-69" points="117.7 351.06 144.45 357.63 121.41 343.94 127.13 341.84 122.41 333.75 134.5 330.24 125.72 323.81 139.01 322.72 80.6 291.75 178.74 326.91 143.21 308.57 143.96 300.29 149.53 298.63 146.97 289.75 152.28 278.11"/><polygon class="cls-70" points="129.85 756.96 150.59 777.6 172.08 735.41 129.85 756.96"/><polygon class="cls-71" points="240.38 695.5 242.75 681.14 277.42 663.51 240.38 695.5"/><polygon class="cls-72" points="277.42 663.51 288.98 649.14 317.08 640.63 277.42 663.51"/><polygon class="cls-73" points="310.65 648.52 320.41 643.94 334.11 657.58 310.65 648.52"/><polygon class="cls-74" points="184.23 733.22 201.43 725.09 230.13 725.5 277.64 742.49 235.4 735.21 184.23 733.22"/><polygon class="cls-75" points="214.97 670.2 228.9 668.6 246.78 633.01 214.97 670.2"/><polygon class="cls-76" points="246.78 633.01 261.1 621.39 269.48 593.25 246.78 633.01"/><polygon class="cls-77" points="261.62 599.72 266.16 589.94 252.45 576.3 261.62 599.72"/><polygon class="cls-78" points="215.71 649.93 258.03 692.06 175.26 732.08 215.71 649.93"/><polygon class="cls-79" points="173.98 723.01 182.02 705.78 181.49 677.08 164.27 629.65 171.75 671.85 173.98 723.01"/><polygon class="cls-80" points="770.24 759.69 748.93 779.74 728.63 736.95 770.24 759.69"/><polygon class="cls-81" points="661.49 695.13 659.52 680.71 625.37 662.11 661.49 695.13"/><polygon class="cls-82" points="625.37 662.11 614.22 647.42 586.37 638.12 625.37 662.11"/><polygon class="cls-83" points="592.58 646.18 582.95 641.33 568.87 654.58 592.58 646.18"/><polygon class="cls-84" points="716.55 734.42 699.59 725.81 670.89 725.41 622.92 741.05 665.35 734.97 716.55 734.42"/><polygon class="cls-85" points="687.61 670.56 673.73 668.56 656.86 632.49 687.61 670.56"/><polygon class="cls-86" points="656.86 632.49 642.88 620.46 635.29 592.1 656.86 632.49"/><polygon class="cls-87" points="642.97 598.78 638.71 588.88 652.79 575.64 642.97 598.78"/><polygon class="cls-88" points="687.44 650.28 643.94 691.2 725.55 733.53 687.44 650.28"/><polygon class="cls-89" points="727.09 724.51 719.53 707.06 720.88 678.38 739.43 631.46 730.76 673.43 727.09 724.51"/><polyline class="cls-90" points="164.52 632.53 149.74 635.43 153 630.28 144.33 626.73 151.79 616.6 140.91 616.83 150.79 607.88 85.6 618.82 184.88 587.04 145.53 594.09 141.09 587.07 144.5 582.36 137.06 576.88 125.67 558.32"/><polyline class="cls-91" points="340.71 769.75 332.23 778.57 329.82 772.98 322 778.12 317.86 766.24 311.9 775.35 310.1 762.13 282.28 822.1 312.18 722.23 295.75 758.68 288.9 751.05 280.9 758.05 277.64 742.49 248.93 733.79"/><polyline class="cls-92" points="622.92 741.05 613.23 738.72 611.84 754.2 602.84 744.35 614.08 809.5 581.85 710.36 589.08 749.68 582.07 754.15 577.35 750.77 571.9 758.23 539.16 773.31"/><polyline class="cls-93" points="770.94 571.32 763.18 581.13 797.08 602.1 739.9 586.88 776.59 603.46 770.88 605.6 775.63 613.66 763.57 617.22 772.37 623.61 759.09 624.77 817.64 655.47 719.34 620.77 738.43 633.38"/></g><g id="Layer_5" data-name="Layer 5"><text class="cls-94" transform="matrix(0.57, 0.82, -0.82, 0.57, 266.88, 548.43)">G</text><text class="cls-94" transform="translate(290.82 581.47) rotate(44.93)">E</text><text class="cls-94" transform="translate(314.38 604.45) rotate(35.92)">T</text><text class="cls-94" transform="translate(339.84 622.17) rotate(29.68)"> </text><text class="cls-94" transform="translate(351.8 628.93) rotate(25.94)"> </text><text class="cls-94" transform="translate(363.74 636.1) rotate(17.32)">W</text><text class="cls-94" transform="translate(415.09 650.5) rotate(5.68)">E</text><text class="cls-94" transform="translate(446.7 653.34) rotate(-2.73)">L</text><text class="cls-94" transform="translate(477.2 651.62) rotate(-11.02)">L</text><text class="cls-94" transform="translate(506.07 645.47) rotate(-17.05)"> </text><text class="cls-94" transform="translate(520.86 641.48) rotate(-24.33)">A</text><text class="cls-94" transform="translate(556.2 624.78) rotate(-33.92)">F</text><text class="cls-94" transform="matrix(0.73, -0.68, 0.68, 0.73, 582.37, 606.97)">R</text><text class="cls-94" transform="matrix(0.65, -0.76, 0.76, 0.65, 606.6, 583.63)">I</text><text class="cls-94" transform="translate(617.81 571.09) rotate(-56.85)">C</text><text class="cls-94" transform="translate(638.27 539.11) rotate(-67.4)">A</text></g></svg>